<svg xmlns="http://www.w3.org/2000/svg" width="1024" height="1024" viewBox="0 0 1024 1024">
  <defs>
    <style>
      .navy{fill:#0B1F4B}
      .klm{fill:#00A1DE}
      .textMain{font-family: Montserrat, Arial, sans-serif; font-weight: 900; letter-spacing: 2px;}
      .textSub{font-family: Montserrat, Arial, sans-serif; font-weight: 800; letter-spacing: 1px;}
    </style>
  </defs>

  <!-- Icon -->
  <g transform="translate(262,140)">
    <!-- Big X -->
    <g class="navy" opacity="0.98">
      <rect x="170" y="-20" width="120" height="520" rx="22" transform="rotate(32 230 240)"/>
      <rect x="170" y="-20" width="120" height="520" rx="22" transform="rotate(-32 230 240)"/>
    </g>

    <!-- Flight path -->
    <path d="M40,430 C160,320 300,240 470,185"
          fill="none" stroke="#00A1DE" stroke-width="44" stroke-linecap="round"/>
    <path d="M55,470 C185,350 320,270 505,205"
          fill="none" stroke="#66C7EE" stroke-width="24" stroke-linecap="round" opacity="0.95"/>

    <!-- Plane -->
    <g transform="translate(430,150) rotate(-18)">
      <path d="M0,70 L160,52 L196,66 L160,80 L0,70 Z" fill="#00A1DE"/>
      <path d="M54,30 L118,70 L54,110 L64,70 Z" fill="#00A1DE"/>
      <path d="M155,60 L230,40 L242,54 L186,78 Z" fill="#00A1DE"/>
      <circle cx="22" cy="70" r="10" fill="#00A1DE"/>
    </g>
  </g>

  <!-- Text -->
  <text x="512" y="820" text-anchor="middle" font-size="120" class="textMain navy">XCMXFA</text>
  <text x="512" y="910" text-anchor="middle" font-size="72" class="textSub klm">Commuter App</text>
</svg>
